<svg xmlns="http://www.w3.org/2000/svg" xmlns:xlink="http://www.w3.org/1999/xlink" viewBox="0 0 169.72 306.15"><defs><style>.cls-1{fill:#e79e63;}.cls-2{fill:#f2cf9f;}.cls-3{isolation:isolate;}.cls-4{opacity:0.05;}.cls-4,.cls-7{mix-blend-mode:multiply;}.cls-5{fill:#694424;}.cls-6{fill:none;stroke:#000;stroke-linecap:round;stroke-linejoin:round;stroke-width:0.2px;}.cls-7{fill:#dfb37d;opacity:0.7;}.cls-8{clip-path:url(#clip-path);}.cls-9{fill:#da8459;}.cls-10{fill:#fff6f0;}.cls-11{fill:#070707;}.cls-12{fill:#b3b3b3;}.cls-13{fill:#2f2e38;}.cls-14{fill:#fff;}.cls-15{fill:#9e6e3c;}.cls-16{fill:#ecb7bf;}.cls-17{clip-path:url(#clip-path-2);}.cls-18{fill:#e7b492;}</style><clipPath id="clip-path" transform="translate(-285.64 -88.51)"><path class="cls-1" d="M394,100.24c-1.89,4.47-1.62,9.54-1,14.35a23.21,23.21,0,0,0,1.18,5.42c.47,1.2,1.11,2.33,1.46,3.56.9,3.13-.16,6.43-.29,9.68a7.49,7.49,0,0,0,3.42,7.13,11.88,11.88,0,0,0,6.73,2.68,7.37,7.37,0,0,0,6.37-3c2.11-3.22.75-7.51,1.34-11.32.37-2.43,1.55-4.65,2.48-6.93A35.22,35.22,0,0,0,418,104.3a14,14,0,0,0-2.08-6.37c-2.53-3.65-7.73-5-11.94-5.13C399.53,92.66,395.57,96.44,394,100.24Z"/></clipPath><clipPath id="clip-path-2" transform="translate(-285.64 -88.51)"><path class="cls-2" d="M353.4,117.55a19.45,19.45,0,0,1,4.27,8.17,47.33,47.33,0,0,1,1.89,15.74,8.66,8.66,0,0,1-1.08,4.39c-1,1.53-2.77,2.33-4.24,3.41a3,3,0,0,0-.91.94,3.38,3.38,0,0,0-.26,1.61c0,2.79.39,6.2,2.95,7.27,1.88.79,4.57.12,5.6,1.87a4,4,0,0,1,.33,2.34l-.72,13.22a19.33,19.33,0,0,1-1.29,7.09,17,17,0,0,1-3.15,4.31,70.11,70.11,0,0,1-6.56,6.22c-1.44,1.2-3.17,2.41-5,2.11a6.42,6.42,0,0,1-3.52-2.42c-7.58-8.64-11-20.18-12.62-31.55a3.65,3.65,0,0,1,.14-2.15c.45-.89,2-1,2.87-1.35,1.13-.42,2.23-.89,3.32-1.41a4.11,4.11,0,0,0,1.57-1.12,4.31,4.31,0,0,0,.51-2.91l-.11-1.9a13.22,13.22,0,0,0-.45-3.14,11.41,11.41,0,0,0-2.38-3.52,26.41,26.41,0,0,1-3.11-4.05,18.86,18.86,0,0,1-1.74-6.33,37.55,37.55,0,0,1-.66-8.18,12.59,12.59,0,0,1,2.84-7.57C336.55,113.36,348.36,112.38,353.4,117.55Z"/></clipPath></defs><g class="cls-3"><g id="OBJECTS"><path class="cls-4" d="M397.94,365.57c-9-.85-18-.11-27,.64l-37.23,3.08c-13.05,1.08-26.16,2.17-38.89,5.26a5.33,5.33,0,0,0-3.36,1.79c-1.66,2.49,1.49,5.42,4.28,6.5,12.32,4.77,26.05,3,39.25,3.68,10.3.55,20.52,2.64,30.82,2.2,7.24-.31,14.43-1.86,21.67-1.52,6.82.33,13.45,2.34,20.25,3.06,9.43,1,18.94-.48,28.31-2,4.72-.74,11.69.51,15.84-.76,6.42-2,2.73-7.41-1.73-9.91a140.61,140.61,0,0,0-20.8-9.55,27.29,27.29,0,0,0-5.72-1.58,66.11,66.11,0,0,0-7.45-.1C410.16,366.29,404,366.14,397.94,365.57Z" transform="translate(-285.64 -88.51)"/><path class="cls-5" d="M431.86,359.21c1.57,3.18,3.66,6.08,5.27,9.24,1,1.91,1.73,4.26.64,6.1-1,1.66-3.1,2.22-5,2.42-4.93.53-10.15-.35-14.16-3.27a6.75,6.75,0,0,1-1.7-1.67c-.95-1.49-.84-3.39-.78-5.16.31-8.38-1.21-16.71-1.48-25.09a2.61,2.61,0,0,1,.47-1.93,2.67,2.67,0,0,1,1.28-.57c2.73-.67,6.35-2.29,9.15-2.23,2.25,0,1.73,3.88,2,5.76C428.22,348.44,429.33,354.1,431.86,359.21Z" transform="translate(-285.64 -88.51)"/><path class="cls-6" d="M438.13,372.87a8.38,8.38,0,0,1-4.33,2.24,15,15,0,0,1-4.91.1,20.31,20.31,0,0,1-12.74-6.29" transform="translate(-285.64 -88.51)"/><path class="cls-5" d="M385.21,357.6a11.06,11.06,0,0,1-1.95,3.16c-2.26,2.48-5.3,4.06-7.75,6.33-2.1,2-5.32,6.41-1.64,8.59a7.92,7.92,0,0,0,3.67.81,38.47,38.47,0,0,0,10.11-.53c3.27-.74,6.11-2.67,9.33-3.57a9.25,9.25,0,0,0,3.06-1.14c1.8-1.34,1.37-5.1,1.19-7-.8-8.34.22-16.75,0-25.13a2.62,2.62,0,0,0-.59-1.9,2.58,2.58,0,0,0-1.31-.49c-2.76-.5-6.48-1.91-9.26-1.68-2.25.18-1.5,4-1.63,5.87a64.11,64.11,0,0,1-1.63,11.37A37.82,37.82,0,0,1,385.21,357.6Z" transform="translate(-285.64 -88.51)"/><path class="cls-6" d="M401.25,368.54c-2.55,2-5.95,2.52-9,3.67-.87.32-1.72.7-2.59,1a29.94,29.94,0,0,1-6.92,1.26c-3.22.33-6.6.58-9.56-.73a1.83,1.83,0,0,1-.94-.74" transform="translate(-285.64 -88.51)"/><path d="M433.11,275.44c-.41,5.73-1.15,11.45-1.14,17.19,0,6.23.9,12.43,1.53,18.64a219.45,219.45,0,0,1,.06,43.49,4.54,4.54,0,0,1-1.14,3.08,5.37,5.37,0,0,1-2.73,1,50.29,50.29,0,0,1-8.49.68,8.31,8.31,0,0,1-4.13-.8c-1.91-1.1-2.49-3.35-2.84-5.37-1.81-10.49-1.72-21.19-.81-31.77.39-4.51.93-9,.87-13.53a50.86,50.86,0,0,0-1.48-12.37,3.49,3.49,0,0,1-.18-1.39c.1-.74.68-1.44.52-2.17a3.84,3.84,0,0,0-.84-1.28c-1.07-1.46-.7-3.39-.52-5.15.56-5.22-1-10.92-1.93-16.06q-1.62-8.55-3.82-17A4.15,4.15,0,0,0,405,250.5a1.83,1.83,0,0,0-2.37-.18c-.7,6-.26,11.84-.56,17.79-.27,5.11,1.05,10.31-.17,15.42a13.58,13.58,0,0,0-.6,3.25,34.23,34.23,0,0,1,.37,3.48c-.09,1.18-.73,2.28-.77,3.47-.06,1.35.67,2.64.69,4,0,1.77-1,3.38-1.09,5.14-.08,2,.16,4.13.17,6.15,0,5,.33,10,.64,15,.62,9.8,1.35,19.65.37,29.45a6,6,0,0,1-.89,3c-1,1.41-3,1.91-4.83,2.27-4.57.9-9.9,1.42-13.39-1.38.94-16.35.34-32.75-.68-49.09-2.08-32.89-5.86-66.13.38-98.58.26-1.38,20.67-1.43,22.9-1.44,4.36,0,20.48-2.13,21.26,2.73,0,5.13,1.72,10.72,2.54,15.8q1.31,8.16,2.62,16.33A138,138,0,0,1,433.11,275.44Z" transform="translate(-285.64 -88.51)"/><path class="cls-6" d="M409.69,251a52.23,52.23,0,0,0-20.91-2.51" transform="translate(-285.64 -88.51)"/><path class="cls-6" d="M400.25,250.55q-6.76,1-13.48,2.3" transform="translate(-285.64 -88.51)"/><path class="cls-6" d="M414.48,219.48a176.65,176.65,0,0,1-24.13-.06" transform="translate(-285.64 -88.51)"/><path class="cls-6" d="M398.78,291.64a19.93,19.93,0,0,1-11.3,5" transform="translate(-285.64 -88.51)"/><path class="cls-6" d="M397.7,294.9a10.45,10.45,0,0,0-1.54,2.31,19.81,19.81,0,0,1-9.61,8.28" transform="translate(-285.64 -88.51)"/><path class="cls-6" d="M415.89,282.5A151.16,151.16,0,0,0,428.3,313" transform="translate(-285.64 -88.51)"/><path class="cls-6" d="M419.28,350.88A10.07,10.07,0,0,0,429,353" transform="translate(-285.64 -88.51)"/><path class="cls-6" d="M421.39,349.6a10,10,0,0,0,5.8,0,29.21,29.21,0,0,0,5.36-2.21" transform="translate(-285.64 -88.51)"/><path class="cls-6" d="M386,352.73a14.91,14.91,0,0,0,10.93-5.06" transform="translate(-285.64 -88.51)"/><path class="cls-6" d="M408,252.1a48.15,48.15,0,0,1,13.06,8.68" transform="translate(-285.64 -88.51)"/><path class="cls-6" d="M391,234.67a52.75,52.75,0,0,0,27.86-8.14" transform="translate(-285.64 -88.51)"/><path class="cls-1" d="M392.52,109.37a2.07,2.07,0,0,0-2.86.22,3.43,3.43,0,0,0-.6,2.18,8.2,8.2,0,0,0,.49,2.36,9.53,9.53,0,0,0,2,3.62,3.24,3.24,0,0,0,3.21,1.12c.62-.2.15-5,.06-5.61A6,6,0,0,0,392.52,109.37Z" transform="translate(-285.64 -88.51)"/><path class="cls-7" d="M391.75,111.31a7.2,7.2,0,0,1,2.31,4.37,2.27,2.27,0,0,1-.22,1.59l-.52-1.08a3.89,3.89,0,0,0-1.06-1.52,5.67,5.67,0,0,0-.8-.45,3.46,3.46,0,0,1-.83-.65,2.53,2.53,0,0,1-.67-2.38C390.32,110.36,391.3,110.92,391.75,111.31Z" transform="translate(-285.64 -88.51)"/><path class="cls-1" d="M418,110.33a2.07,2.07,0,0,1,2.83.38,3.42,3.42,0,0,1,.47,2.22,8.45,8.45,0,0,1-.62,2.33,9.63,9.63,0,0,1-2.18,3.49,3.24,3.24,0,0,1-3.27.93c-.61-.24.14-5,.28-5.61A5.94,5.94,0,0,1,418,110.33Z" transform="translate(-285.64 -88.51)"/><path class="cls-7" d="M418.66,112.31a7.17,7.17,0,0,0-2.56,4.22,2.3,2.3,0,0,0,.12,1.6l.59-1a3.94,3.94,0,0,1,1.14-1.45,7.93,7.93,0,0,1,.83-.4,3.38,3.38,0,0,0,.87-.6,2.57,2.57,0,0,0,.81-2.34C420.15,111.45,419.14,112,418.66,112.31Z" transform="translate(-285.64 -88.51)"/><path class="cls-1" d="M394,100.24c-1.89,4.47-1.62,9.54-1,14.35a23.21,23.21,0,0,0,1.18,5.42c.47,1.2,1.11,2.33,1.46,3.56.9,3.13-.16,6.43-.29,9.68a7.49,7.49,0,0,0,3.42,7.13,11.88,11.88,0,0,0,6.73,2.68,7.37,7.37,0,0,0,6.37-3c2.11-3.22.75-7.51,1.34-11.32.37-2.43,1.55-4.65,2.48-6.93A35.22,35.22,0,0,0,418,104.3a14,14,0,0,0-2.08-6.37c-2.53-3.65-7.73-5-11.94-5.13C399.53,92.66,395.57,96.44,394,100.24Z" transform="translate(-285.64 -88.51)"/><g class="cls-8"><path class="cls-9" d="M401.92,116.81a3.74,3.74,0,1,1-3.74-3.69A3.71,3.71,0,0,1,401.92,116.81Z" transform="translate(-285.64 -88.51)"/><path class="cls-9" d="M418.75,116.81a3.74,3.74,0,1,1-3.73-3.69A3.71,3.71,0,0,1,418.75,116.81Z" transform="translate(-285.64 -88.51)"/></g><path class="cls-7" d="M411.1,126.9a13.43,13.43,0,0,1-3.4,4.06,5.8,5.8,0,0,1-4.57,1.52,5.51,5.51,0,0,1-2.7-1.62A10.93,10.93,0,0,1,398,127c-.37-1-1.11-2.68.36-1.61,2.44,1.79,4.78,3,7.92,2.88A10.53,10.53,0,0,0,411.1,126.9Z" transform="translate(-285.64 -88.51)"/><path d="M402.63,111.35c0,1-.59,1.79-1.23,1.77s-1.12-.86-1.08-1.87.59-1.79,1.23-1.77S402.67,110.34,402.63,111.35Z" transform="translate(-285.64 -88.51)"/><path d="M412.07,111.8c0,1-.59,1.8-1.23,1.78s-1.13-.86-1.09-1.87.59-1.8,1.23-1.77S412.11,110.8,412.07,111.8Z" transform="translate(-285.64 -88.51)"/><path class="cls-6" d="M402.53,117.88a5.71,5.71,0,0,0,6.8,1.68" transform="translate(-285.64 -88.51)"/><path class="cls-6" d="M404.46,121.45a3.55,3.55,0,0,0,3.11.31" transform="translate(-285.64 -88.51)"/><path class="cls-6" d="M405.68,107.47a6.61,6.61,0,0,0-8.36-1.37" transform="translate(-285.64 -88.51)"/><path class="cls-6" d="M409.44,107.53a6.89,6.89,0,0,1,7.39-1" transform="translate(-285.64 -88.51)"/><path class="cls-6" d="M408.44,110.27a7.23,7.23,0,0,0,.92,4.07,4,4,0,0,1,.41.8,1.9,1.9,0,0,1-.48,1.81,2.78,2.78,0,0,1-1.74.81" transform="translate(-285.64 -88.51)"/><path class="cls-1" d="M442.47,246.32a12.89,12.89,0,0,1-1.09,3.71,14.1,14.1,0,0,1-1.38,2.13,37.83,37.83,0,0,1-5.92,6.21c-.66.55-2.18,1.46-2.51,0a2.73,2.73,0,0,1,.5-1.87c.59-1.08,1.19-2.15,1.78-3.22a8.48,8.48,0,0,0,.86-1.92,8.28,8.28,0,0,0,.2-2.06c0-1.27,0-2.54,0-3.81a1,1,0,0,0-.21-.74c-.84-.77-2.37,3-2.54,3.52-.49,1.55-.88,3.43-2.35,4.38-.9-.4-1.11-1.56-1.13-2.55a19.39,19.39,0,0,1,2-8.91c1.4-2.83,3.54-5.41,4-8.54.13-.9.21-2,1-2.41a2.37,2.37,0,0,1,1.47-.12c1.09.16,4.53.46,5.14,1.5.44.76-.49,2.72-.37,3.7C442.41,239.13,443.08,242.48,442.47,246.32Z" transform="translate(-285.64 -88.51)"/><path class="cls-6" d="M438.3,248.24a19.14,19.14,0,0,1-.73,3.52c-.23.67-.52,1.32-.81,2-.37.85-.75,1.7-1.13,2.55a4.39,4.39,0,0,1-1,1.6" transform="translate(-285.64 -88.51)"/><path class="cls-6" d="M440.69,246.89a17.63,17.63,0,0,1-2,7" transform="translate(-285.64 -88.51)"/><path class="cls-10" d="M403.73,138.22a34.28,34.28,0,0,1-8.45-7.8c-.89,2.28-.38,5.19-2.13,6.9a6.93,6.93,0,0,1-2.76,1.39l-7.86,2.58a3.54,3.54,0,0,0-1.59.84,3.66,3.66,0,0,0-.58,2.77q1.35,20.91,2.68,41.8c.58,9,1.15,18,.18,26.91A106.66,106.66,0,0,0,414.41,215a1.47,1.47,0,0,0,1.61-1.72c1.05-14.26-2.06-28.63-.56-42.85.43-4.11,1.25-8.18,1.87-12.27,1-6.49,1.46-13,1.94-19.59a3.7,3.7,0,0,0-.11-1.59c-.37-1-1.43-1.45-2.3-2s-1.94-2.66-2.79-3c-1.3-.53-2,1.24-2.81,2.09A13.91,13.91,0,0,1,403.73,138.22Z" transform="translate(-285.64 -88.51)"/><path class="cls-6" d="M403.59,139.33c1.76,11.84-1.84,23.86-1.23,35.82.17,3.37.68,6.77.12,10.1-.43,2.61-1.51,5.06-2.23,7.6s-1.09,5.33-.12,7.79a9.4,9.4,0,0,1,.81,2.28,6.66,6.66,0,0,1-.53,2.72,27.59,27.59,0,0,0-1.35,10.17" transform="translate(-285.64 -88.51)"/><path class="cls-6" d="M411.68,201.16a24.64,24.64,0,0,1-21.72,3" transform="translate(-285.64 -88.51)"/><path class="cls-6" d="M404.91,200.45a16.78,16.78,0,0,1-14.74.44" transform="translate(-285.64 -88.51)"/><path class="cls-11" d="M406.76,146.65a6.52,6.52,0,0,1-.64,1,5,5,0,0,0-1.18,2,4.57,4.57,0,0,0,0,1.43c.77,7.24.92,27.09,1.23,34.36A8.68,8.68,0,0,1,406,188a8.53,8.53,0,0,1-1.52,2.81c-.89,1.24-1.79,2.47-2.68,3.7a1.64,1.64,0,0,1-.72.64c-.6.18-1.13-.43-1.48-1a13.21,13.21,0,0,1-2.27-5,15,15,0,0,1,.11-4l.84-7.18c.54-4.62,1.48-21.85,2.7-26.33.44-1.61,1-3.37.33-4.91-.32-.76-.91-1.48-.77-2.29a2.66,2.66,0,0,1,.42-.94c.75-1.2,1.3-2.52,2.07-3.71a7.64,7.64,0,0,1,.58-.79c.1-.11.2-.29.36-.24s.29.42.37.55c.43.75.75,1.56,1.15,2.33l.17.32a31.65,31.65,0,0,1,1.64,2.81.74.74,0,0,1,.08.35.69.69,0,0,1-.08.28C407.15,145.83,407,146.25,406.76,146.65Z" transform="translate(-285.64 -88.51)"/><path class="cls-6" d="M416.51,135.37a39.18,39.18,0,0,1-4.63,10.78c-.37.59-.88,1.25-1.58,1.22a2.05,2.05,0,0,1-1.34-.91,43.15,43.15,0,0,1-5.08-7.73,35.85,35.85,0,0,1-5.73,7.78,25.2,25.2,0,0,1-4.65-9.33" transform="translate(-285.64 -88.51)"/><path d="M435.33,144.38a6.41,6.41,0,0,1,2,4.36c.06,1.18-.16,2.36-.18,3.54a19.8,19.8,0,0,0,.65,4.51c2.8,12.47,6,24.89,8.59,37.4a83,83,0,0,1-1.78,40.11,27.7,27.7,0,0,1-12.33-1.25,163.87,163.87,0,0,0,1.7-22.13,75.43,75.43,0,0,0-.87-15.24,82.46,82.46,0,0,0-4.88-15.34c-1,3.19-.58,6.62-.4,9.95a64.93,64.93,0,0,1-.69,13.43,5.51,5.51,0,0,0-.07,2.1c.13.56.44,1.07.55,1.63a6.38,6.38,0,0,1-.17,2.08c-.4,2.47.15,5,.61,7.46,1.08,5.69,2.18,13-.56,18.38-.45.88-6.84,10.2-7.51,9.54a106.43,106.43,0,0,1-10.63-12,30,30,0,0,1-4.49-7.46,32.18,32.18,0,0,1-1.57-9q-.47-6.42-.65-12.83a93.54,93.54,0,0,1,.18-11c.88-9.76,4.3-19.07,7.55-28.3,1.63-4.63,3.23-9.28,4.48-14,1.16-4.43,1.46-8.9,3.3-13.1a58.38,58.38,0,0,1,7.11,2.43C428.38,140.75,432.8,141.84,435.33,144.38Z" transform="translate(-285.64 -88.51)"/><path class="cls-12" d="M354.92,243.72a13.1,13.1,0,0,0-.34,3.84,14.11,14.11,0,0,0,.51,2.49,38.1,38.1,0,0,0,3.23,7.95c.41.75,1.5,2.15,2.33.94a2.76,2.76,0,0,0,.21-1.93c-.15-1.21-.31-2.42-.47-3.64a8.68,8.68,0,0,1-.1-2.1,8.82,8.82,0,0,1,.56-2c.45-1.19.91-2.37,1.39-3.55a1,1,0,0,1,.47-.61c1.05-.41,1.11,3.66,1.07,4.2-.1,1.63-.43,3.51.59,4.93,1,0,1.61-1,2-1.95a19.39,19.39,0,0,0,1.38-9c-.27-3.14-1.31-6.33-.58-9.4.21-.88.53-1.92-.06-2.61a2.36,2.36,0,0,0-1.32-.65c-1.07-.25-4.39-1.23-5.34-.48-.69.54-.53,2.71-1,3.58C357.6,237,355.76,239.91,354.92,243.72Z" transform="translate(-285.64 -88.51)"/><path class="cls-6" d="M358.09,247a20.13,20.13,0,0,0-.59,3.54c0,.71,0,1.41,0,2.12.05.93.09,1.86.13,2.79a4.17,4.17,0,0,0,.37,1.85" transform="translate(-285.64 -88.51)"/><path class="cls-6" d="M356.36,244.89a18,18,0,0,0-.64,7.22" transform="translate(-285.64 -88.51)"/><path d="M371.45,144.78a4.91,4.91,0,0,0-2.57,1.45c-1.05,1.41-.21,3.13-.34,4.69s-.57,3.15-.65,4.82q-.3,6.42-.59,12.84c-.43,9.28-.87,18.6-2.58,27.75-2.1,11.22-6.13,22.14-7.07,33.51a4.42,4.42,0,0,0,.26,2.42,4.6,4.6,0,0,0,3.25,1.94,19.88,19.88,0,0,0,7.57.19c.76-10.55,6.42-20.29,7.74-30.8.4-3.16,1.45-6.17,1.8-9.38.22-2,.2-4,.42-6,.12-1.17.19-4.36,1.44-4.9.6,1.28.25,2.77.24,4.19a26,26,0,0,0,.37,3.4,87.38,87.38,0,0,1,.38,11.21,10.79,10.79,0,0,1-.12,2.13c-.16.8-.49,1.55-.58,2.36a13.6,13.6,0,0,0,.19,2.62,24.83,24.83,0,0,1-.52,5.82,52.24,52.24,0,0,0-.49,10.82,14.5,14.5,0,0,0,.53,3.47,17.15,17.15,0,0,0,1.72,3.49c1.6,2.69,3.1,5.48,4.82,8.09.43.66,4.64,5.94,4.34,6.35q4-5.72,7.64-11.72a37.25,37.25,0,0,0,4.28-9.13c1-3.75.95-7.68.87-11.56l-.22-10.25A83.69,83.69,0,0,0,402.42,190c-.61-3.11-1.58-6.15-2.49-9.2a293,293,0,0,1-7.32-29.26c-.38-2.07-.49-4.19-.81-6.27a29.14,29.14,0,0,0-2.09-6.28,59.24,59.24,0,0,0-7.2,2.19Z" transform="translate(-285.64 -88.51)"/><path class="cls-6" d="M379.38,179.53l-.48-16.08" transform="translate(-285.64 -88.51)"/><path class="cls-6" d="M376.8,154.9a12.59,12.59,0,0,0-1.72-5c-1.25-1.77-3.34-2.85-4.73-4.52" transform="translate(-285.64 -88.51)"/><path class="cls-6" d="M385.63,140.38l-3.53,9a1.27,1.27,0,0,0-.12.87c.12.35.51.53.86.68l5.54,2.36a31.53,31.53,0,0,0-4,5.53c4.19,9.35,14.91,24.25,18.37,33.86" transform="translate(-285.64 -88.51)"/><path class="cls-6" d="M375.25,188.1a29.44,29.44,0,0,1-10.85,14.18" transform="translate(-285.64 -88.51)"/><path class="cls-6" d="M372.36,201.23a27.86,27.86,0,0,1-3.4,4" transform="translate(-285.64 -88.51)"/><path class="cls-6" d="M422.15,138.71l3.18,9.08a1.26,1.26,0,0,1,.09.87,1.37,1.37,0,0,1-.88.66l-5.62,2.17a31.75,31.75,0,0,1,3.75,5.66c-4.54,9.2-16.06,26-19.88,35.5" transform="translate(-285.64 -88.51)"/><path class="cls-6" d="M441.89,191.15a12.67,12.67,0,0,1-7.26,1.48" transform="translate(-285.64 -88.51)"/><path class="cls-6" d="M439.55,190.51a15,15,0,0,1-7.07-.26" transform="translate(-285.64 -88.51)"/><path class="cls-6" d="M403.15,193.63c-.21,6.27.12,12.53.44,18.79q.24,4.38.46,8.75" transform="translate(-285.64 -88.51)"/><path class="cls-6" d="M399.4,193.89a3.49,3.49,0,0,0,2.22.34" transform="translate(-285.64 -88.51)"/><path class="cls-6" d="M399.4,217.92a17.34,17.34,0,0,0,2.6,0" transform="translate(-285.64 -88.51)"/><path class="cls-6" d="M408.24,218.16a26.85,26.85,0,0,0,16.22-10.89" transform="translate(-285.64 -88.51)"/><path class="cls-6" d="M410.26,212.5a14.67,14.67,0,0,0,8.55-2.63" transform="translate(-285.64 -88.51)"/><path class="cls-6" d="M434.39,146.48a13.7,13.7,0,0,0-5.53,7" transform="translate(-285.64 -88.51)"/><path class="cls-6" d="M428.22,179.33a42,42,0,0,0-1.87-4.36" transform="translate(-285.64 -88.51)"/><path class="cls-6" d="M383.71,204.6a10,10,0,0,0,8.9,3.88" transform="translate(-285.64 -88.51)"/><path class="cls-13" d="M390.58,105.54A27.16,27.16,0,0,1,391.87,97c.4-1.36,1-2.82,2.25-3.47a4.85,4.85,0,0,1,3.82.16,8.3,8.3,0,0,1,5.91-5.15l-1.73,3c1.76-1.06,4-1,6-.7,3.82.53,7.78,1.84,10.23,4.82,1.12,1.35,1.86,3,2.87,4.39a6.46,6.46,0,0,0,4.15,3,9.82,9.82,0,0,1-4.77.5,8.85,8.85,0,0,1,0,6.17,13.76,13.76,0,0,1-3.46,5.22c.52-2,1-4.36-.11-6.16a11.68,11.68,0,0,0-2.92-2.63,12.82,12.82,0,0,1-3.27-3.91,7.22,7.22,0,0,0,2.78,5.07,21.22,21.22,0,0,1-13-6.56,6,6,0,0,1-1.53-2.41A21.69,21.69,0,0,1,395,109.59a15.24,15.24,0,0,0-2.05,3.86c-.94-.46-1.46-2.66-1.73-3.62A17.8,17.8,0,0,1,390.58,105.54Z" transform="translate(-285.64 -88.51)"/><path class="cls-6" d="M398.46,94.21a9.56,9.56,0,0,0,.51,2.7" transform="translate(-285.64 -88.51)"/><path class="cls-6" d="M397.48,95.74A4.23,4.23,0,0,0,396,96.93a13.82,13.82,0,0,0-2.93,5.69" transform="translate(-285.64 -88.51)"/><path class="cls-6" d="M396.05,99a17.78,17.78,0,0,0-2.12,5.14" transform="translate(-285.64 -88.51)"/><path class="cls-6" d="M400.51,95.82a14.2,14.2,0,0,0,6.54,7.33" transform="translate(-285.64 -88.51)"/><path class="cls-14" d="M424.78,170.65a17.11,17.11,0,0,0-2.54-5.18,1.12,1.12,0,0,0-.84-.6,1.1,1.1,0,0,0-.62.25,9.72,9.72,0,0,0-2,2c-.66.82-1.29,1.66-1.9,2.53-.19.28-.66.69-.35,1s1.1.12,1.4.13C420.21,170.8,422.5,170.77,424.78,170.65Z" transform="translate(-285.64 -88.51)"/><path class="cls-15" d="M320.37,148.68a10.32,10.32,0,0,0,6,9.55,11.42,11.42,0,0,0,11.32-1.35,10.26,10.26,0,0,0,2.83-3.18,9.8,9.8,0,0,0-2.05-11.61C332.45,136.58,320.77,140,320.37,148.68Z" transform="translate(-285.64 -88.51)"/><path class="cls-6" d="M327.67,141.66a12.39,12.39,0,0,0-2.8,8.72c.36,3.1,2.69,6.07,5.79,6.52" transform="translate(-285.64 -88.51)"/><path class="cls-6" d="M328.93,143.46a6.76,6.76,0,0,0,7.65,10.79" transform="translate(-285.64 -88.51)"/><path class="cls-15" d="M357.52,120c1,2.47,1.64,5.09,2.94,7.4,1.2,2.16,3,4,3.61,6.43a8.32,8.32,0,0,1-3.31,8.74,9.76,9.76,0,0,1-9.49.69,7.08,7.08,0,0,1-2.2-1.51,7.38,7.38,0,0,1-1.57-2.8c-1.23-3.67-.64-7.69.2-11.46q.68-3,1.53-5.92c.53-1.79.94-4.27,2-5.82C353.79,112,356.72,118,357.52,120Z" transform="translate(-285.64 -88.51)"/><path class="cls-6" d="M361.16,138.2a5.21,5.21,0,0,0,.06-4.8,29.62,29.62,0,0,0-2.65-4.23,21.33,21.33,0,0,1-2.66-5.8" transform="translate(-285.64 -88.51)"/><path class="cls-2" d="M305,252.31a12.84,12.84,0,0,0-1,3.73,13.47,13.47,0,0,0,.09,2.54A37.44,37.44,0,0,0,306,267c.28.81,1.11,2.37,2.13,1.31a2.77,2.77,0,0,0,.54-1.86c0-1.22.09-2.44.13-3.67a8.52,8.52,0,0,1,.25-2.08,8.26,8.26,0,0,1,.88-1.88q1-1.65,1.95-3.27a1,1,0,0,1,.57-.52c1.11-.23.49,3.78.37,4.31-.38,1.59-1,3.4-.24,5,1,.12,1.76-.77,2.28-1.6a19.44,19.44,0,0,0,2.85-8.68c.25-3.15-.25-6.46,1-9.38.35-.83.84-1.8.37-2.58a2.41,2.41,0,0,0-1.2-.86c-1-.42-4.12-1.93-5.18-1.36-.77.43-1,2.59-1.59,3.37C308.73,246.17,306.44,248.69,305,252.31Z" transform="translate(-285.64 -88.51)"/><path class="cls-6" d="M307.56,256.09a15.9,15.9,0,0,0-1.49,5.5c-.12.92-.23,1.84-.34,2.76a4.34,4.34,0,0,0,0,1.9" transform="translate(-285.64 -88.51)"/><path class="cls-6" d="M306.21,253.7a17.87,17.87,0,0,0-1.83,7" transform="translate(-285.64 -88.51)"/><g id="left_arm" data-name="left arm"><path class="cls-16" d="M322.73,161.24l-.33.08a12.39,12.39,0,0,0-3.52,1.34c-5.27,3.34-4.11,11.05-3.38,16.18A74.8,74.8,0,0,1,310.93,217c-2.14,5.36-4.92,10.54-5.87,16.23-.53,3.22-.47,6.6-1.71,9.62-1.13,2.72-3.3,5.16-3.27,8.11,1.85-.7,3.91.08,5.61,1.08s3.36,2.23,5.31,2.52c2.83.42,5.74-1.27,8.52-.55,1.36.35,2.52,1.24,3.87,1.63s3.14,0,3.53-1.34a3.57,3.57,0,0,0-.18-2,18.64,18.64,0,0,1-.92-7.64c.49-3.45,2.66-6.47,3.32-9.89.73-3.79-.44-7.64-1.07-11.45a41.17,41.17,0,0,1,.2-14.56c.72-3.69,2-7.36,1.65-11.11-.2-2.59-1.13-5.07-1.76-7.6-1.78-7.18-1.1-14.68.25-21.87.27-1.43.82-2.81,1.2-4.21s.35-2.71.65-4.09c0-.12.11-.8.11-.8a6.16,6.16,0,0,1-.71.34Z" transform="translate(-285.64 -88.51)"/><path class="cls-6" d="M315.3,221.8c-2.83,4.09-3,9.38-4.26,14.19a31,31,0,0,1-5.88,11.69" transform="translate(-285.64 -88.51)"/><path class="cls-6" d="M316.47,227.62c-1.47,7.79-3,15.77-7.11,22.55" transform="translate(-285.64 -88.51)"/><path class="cls-6" d="M323.31,227.66a139.34,139.34,0,0,1-3.93,20" transform="translate(-285.64 -88.51)"/></g><path class="cls-2" d="M353.4,117.55a19.45,19.45,0,0,1,4.27,8.17,47.33,47.33,0,0,1,1.89,15.74,8.66,8.66,0,0,1-1.08,4.39c-1,1.53-2.77,2.33-4.24,3.41a3,3,0,0,0-.91.94,3.38,3.38,0,0,0-.26,1.61c0,2.79.39,6.2,2.95,7.27,1.88.79,4.57.12,5.6,1.87a4,4,0,0,1,.33,2.34l-.72,13.22a19.33,19.33,0,0,1-1.29,7.09,17,17,0,0,1-3.15,4.31,70.11,70.11,0,0,1-6.56,6.22c-1.44,1.2-3.17,2.41-5,2.11a6.42,6.42,0,0,1-3.52-2.42c-7.58-8.64-11-20.18-12.62-31.55a3.65,3.65,0,0,1,.14-2.15c.45-.89,2-1,2.87-1.35,1.13-.42,2.23-.89,3.32-1.41a4.11,4.11,0,0,0,1.57-1.12,4.31,4.31,0,0,0,.51-2.91l-.11-1.9a13.22,13.22,0,0,0-.45-3.14,11.41,11.41,0,0,0-2.38-3.52,26.41,26.41,0,0,1-3.11-4.05,18.86,18.86,0,0,1-1.74-6.33,37.55,37.55,0,0,1-.66-8.18,12.59,12.59,0,0,1,2.84-7.57C336.55,113.36,348.36,112.38,353.4,117.55Z" transform="translate(-285.64 -88.51)"/><g class="cls-17"><path class="cls-18" d="M348.28,138.54a3.73,3.73,0,1,1-3.73-3.68A3.71,3.71,0,0,1,348.28,138.54Z" transform="translate(-285.64 -88.51)"/><path class="cls-18" d="M364.7,136.79a3.73,3.73,0,1,1-3.73-3.68A3.71,3.71,0,0,1,364.7,136.79Z" transform="translate(-285.64 -88.51)"/></g><g id="mid_gown" data-name="mid gown"><path class="cls-16" d="M342.75,172.3a16.15,16.15,0,0,0,12.06-2.19c3.6-2.16,4.9-6.56,5.62-10.13.67,6.94,7.2,15.07,6.67,22-.63,8.23-9.16,16.49-5.09,24.41,1.47,2.88,3.78,5.23,5.75,7.79A50.59,50.59,0,0,1,375.12,228a131.57,131.57,0,0,1,4.79,19q13.29,67.38,21.37,135.67c-9.59-1.55-19.13,2.21-28.36,5.21-14.76,4.78-30.33,7.78-45.79,6.39s-30.83-7.47-41.49-18.74A619.61,619.61,0,0,0,311.07,264.7c2-14.58,3.55-29.73,11-42.41,4.17-7.09,10.28-13.81,10.32-22,0-6.82-4.17-12.86-6-19.43s-2.63-16.87,3.25-21.43c.45,3.25,2.94,5.66,5.17,8A17.11,17.11,0,0,0,342.75,172.3Z" transform="translate(-285.64 -88.51)"/><path class="cls-6" d="M330.75,163.36c1.75,7.39,5.75,14.77,12.56,18.13a10.23,10.23,0,0,0,7.16,1" transform="translate(-285.64 -88.51)"/><path class="cls-6" d="M329.8,168.91a35,35,0,0,0,3.54,9.21,15,15,0,0,0,7.26,6.47" transform="translate(-285.64 -88.51)"/><path class="cls-6" d="M344.41,177a8.27,8.27,0,0,0,4.2-.42,18.12,18.12,0,0,0,11.88-13" transform="translate(-285.64 -88.51)"/><path class="cls-6" d="M351.34,178.9a16.44,16.44,0,0,0,9.28-10.85" transform="translate(-285.64 -88.51)"/><path class="cls-6" d="M334.41,250.7c-.79,20.09-1.59,40.21-4.1,60.16a352.71,352.71,0,0,1-16.79,71.76" transform="translate(-285.64 -88.51)"/><path class="cls-6" d="M360,253.57a639.34,639.34,0,0,0,7.9,123.83" transform="translate(-285.64 -88.51)"/><path class="cls-6" d="M366.84,303.92c3.62,25.88,7.33,52.09,17.5,76.15" transform="translate(-285.64 -88.51)"/><path class="cls-6" d="M314.27,309a269.25,269.25,0,0,1-19.39,64.14" transform="translate(-285.64 -88.51)"/></g><path class="cls-2" d="M388.53,251.21a12.9,12.9,0,0,1,1,3.74,13.5,13.5,0,0,1-.09,2.54,37.57,37.57,0,0,1-1.88,8.37c-.28.81-1.12,2.37-2.14,1.31a2.83,2.83,0,0,1-.53-1.86l-.13-3.67a8.66,8.66,0,0,0-.25-2.09,8.39,8.39,0,0,0-.88-1.87q-1-1.65-2-3.27a1,1,0,0,0-.57-.53c-1.11-.23-.49,3.79-.37,4.32.38,1.59,1,3.4.24,5-1,.12-1.76-.77-2.28-1.6a19.44,19.44,0,0,1-2.85-8.69c-.25-3.15.25-6.46-1-9.37-.35-.83-.84-1.81-.37-2.59a2.33,2.33,0,0,1,1.2-.85c1-.42,4.12-1.93,5.18-1.36.77.43,1,2.59,1.58,3.37C384.78,245.08,387.07,247.6,388.53,251.21Z" transform="translate(-285.64 -88.51)"/><path class="cls-6" d="M386,255a20.69,20.69,0,0,1,1.17,3.4,21.09,21.09,0,0,1,.32,2.09c.12.93.23,1.85.34,2.77a4.2,4.2,0,0,1-.06,1.9" transform="translate(-285.64 -88.51)"/><path class="cls-6" d="M387.3,252.61a17.82,17.82,0,0,1,1.83,7" transform="translate(-285.64 -88.51)"/><g id="right_arm" data-name="right arm"><path class="cls-16" d="M370.17,162.35a11.23,11.23,0,0,1,3.23,5c2.66,7.38.77,15.7,2.81,23.27.68,2.51,1.79,4.9,2.37,7.44.69,3,.63,6.1,1.09,9.13,1.14,7.41,5.34,14,7.14,21.29,1.35,5.48,1.31,11.19,1.26,16.83-2-.9-4.37-.35-6.36.58s-3.82,2.23-5.92,2.89a10.64,10.64,0,0,1-9.19-1.45c2-4.3,3.75-8.87,3.58-13.59-.24-6.46-4.11-12.34-4.48-18.78-.14-2.52.26-5,.22-7.55-.1-6.23-2.85-12.13-3.45-18.33-.64-6.57,1.14-13.4-.78-19.71-.63-2-1.23-9.36-1.23-9.36S368.38,160.88,370.17,162.35Z" transform="translate(-285.64 -88.51)"/><path class="cls-6" d="M372.34,222.16a20.78,20.78,0,0,1,1.41,8.76c-.13,2.39-.67,4.73-.93,7.11a13.71,13.71,0,0,0,.74,7.05" transform="translate(-285.64 -88.51)"/><path class="cls-6" d="M377.06,223.81c.73,3.39.54,6.9.64,10.37s.52,7,2.3,10" transform="translate(-285.64 -88.51)"/><path class="cls-6" d="M382.07,230.68a78.61,78.61,0,0,0,2.49,10.06" transform="translate(-285.64 -88.51)"/></g><path class="cls-7" d="M346.78,149.38a33.66,33.66,0,0,1-5.36-2.54,21,21,0,0,0,1.63,4.71,7.08,7.08,0,0,0,3.54,3.37,3.7,3.7,0,0,0,2.7.07,4.63,4.63,0,0,0,1.92-1.78,9,9,0,0,0,1.61-3.39A14.76,14.76,0,0,1,346.78,149.38Z" transform="translate(-285.64 -88.51)"/><path class="cls-10" d="M347.25,153.33a29.57,29.57,0,0,1-9.88-1.64c0,.55.07,1.1.1,1.64q0,.43,0,.87a29.7,29.7,0,0,0,9.75,1.59,31.51,31.51,0,0,0,6.11-.59,15.07,15.07,0,0,1-.27-2.41A31.46,31.46,0,0,1,347.25,153.33Z" transform="translate(-285.64 -88.51)"/><path class="cls-15" d="M353.91,114.29a7.54,7.54,0,0,0-3.61-1.86c-5.18-1.37-10.73-.52-15.8,1.22-3.73,1.29-7.61,3.38-9,7.08a26.22,26.22,0,0,0-.94,5c-.48,2.88-1.61,5.64-1.78,8.55a13.08,13.08,0,0,0,12,13.78c.76.06,1.69,0,2-.75a1.56,1.56,0,0,0,0-1c-.46-2-2.14-3.39-3.12-5.16a7.74,7.74,0,0,1-.93-3.29l1.59-1.11a9.58,9.58,0,0,0,.83,5.22c.49.94,1.18,1.75,1.76,2.64a12.2,12.2,0,0,1,1.58,9.42c1.23-2.95,2.46-6.28,1.27-9.24-.63-1.56-1.85-2.79-2.75-4.21a5.08,5.08,0,0,1-.84-2.17c-.41-4.22,5.45-6.89,8.21-9.05a47.05,47.05,0,0,0,7.67-7.12C353.83,120.1,356.42,116.91,353.91,114.29Z" transform="translate(-285.64 -88.51)"/><path class="cls-6" d="M332.39,136.26a68.57,68.57,0,0,0,13.08-12.84" transform="translate(-285.64 -88.51)"/><path class="cls-6" d="M331.61,134.81a63.36,63.36,0,0,0,7.09-9.69" transform="translate(-285.64 -88.51)"/><path class="cls-2" d="M335.17,142.08c.76.85-2.3.24-3.36-.52a9.7,9.7,0,0,1-2.57-3.19,7.85,7.85,0,0,1-.9-2.23,3.41,3.41,0,0,1,.19-2.25,2.06,2.06,0,0,1,2.76-.73,5.56,5.56,0,0,1,2.17,1.92l.67,2.24S333.93,140.7,335.17,142.08Z" transform="translate(-285.64 -88.51)"/><path class="cls-7" d="M330.89,135.2a7.11,7.11,0,0,1,3.05,3.87,2.2,2.2,0,0,1,.07,1.59l-.7-1a4,4,0,0,0-1.31-1.3,6.83,6.83,0,0,0-.87-.29,3.52,3.52,0,0,1-.94-.49,2.57,2.57,0,0,1-1.08-2.22C329.31,134.53,330.38,134.9,330.89,135.2Z" transform="translate(-285.64 -88.51)"/><path class="cls-16" d="M325.75,125.26a7.17,7.17,0,0,0,.82-4.35,4.12,4.12,0,0,1,.92,5c-.71,1.28-2.06,2.08-2.84,3.31l2.59-1.22c.83-.4,1.75-.88,2-1.75s-.25-1.91-.42-2.88c-.3-1.67.54-3.32,1.35-4.82a7.52,7.52,0,0,1-.31,8A5.29,5.29,0,0,0,332,124c.3-.73.44-1.53.74-2.26A10.83,10.83,0,0,1,336,118c-.65,1.26-.05,2.79-.26,4.18a4.64,4.64,0,0,1-1.85,2.89,10.93,10.93,0,0,1-3.14,1.54,14.07,14.07,0,0,0,5.15.72,5.2,5.2,0,0,1-2.08,2,2.21,2.21,0,0,1-2.66-.53,6.17,6.17,0,0,0-.59-.91c-.67-.63-1.75-.16-2.52.33a4.3,4.3,0,0,0,4.19,2.11,3.81,3.81,0,0,1-2,1.25,2.32,2.32,0,0,1-2.2-.66c-.39-.45-.58-1.09-1.09-1.38-1.13-.63-2.48.95-3.71.56C323.74,130.25,325.53,125.74,325.75,125.26Z" transform="translate(-285.64 -88.51)"/><path d="M349.11,132.9c0,1-.51,1.82-1.15,1.82s-1.16-.81-1.16-1.81.51-1.82,1.14-1.82S349.1,131.9,349.11,132.9Z" transform="translate(-285.64 -88.51)"/><path d="M357.87,132.16c0,1-.51,1.81-1.14,1.82s-1.16-.81-1.17-1.81.51-1.82,1.15-1.82S357.87,131.15,357.87,132.16Z" transform="translate(-285.64 -88.51)"/><path class="cls-6" d="M354.63,133.11a5.37,5.37,0,0,0,1.88,4.54.4.4,0,0,1,.15.19.36.36,0,0,1,0,.2,4.4,4.4,0,0,1-1.94,2.1" transform="translate(-285.64 -88.51)"/><path class="cls-6" d="M349.73,140.75a4.35,4.35,0,0,0,4.8,1.12" transform="translate(-285.64 -88.51)"/><path class="cls-6" d="M351.42,143.33a2.34,2.34,0,0,0,2.34-.18" transform="translate(-285.64 -88.51)"/><path class="cls-6" d="M354.72,129.86a3.16,3.16,0,0,1,3-2.11" transform="translate(-285.64 -88.51)"/><path class="cls-6" d="M351,130.25a6.2,6.2,0,0,0-6.43-.59" transform="translate(-285.64 -88.51)"/><path class="cls-14" d="M335.74,143.49a1.75,1.75,0,1,1-1.75-1.75A1.74,1.74,0,0,1,335.74,143.49Z" transform="translate(-285.64 -88.51)"/><path class="cls-6" d="M344.5,160.52a8.16,8.16,0,0,0-4-.77,20,20,0,0,1-4.1-.15" transform="translate(-285.64 -88.51)"/><path class="cls-6" d="M349.4,160.68a17.82,17.82,0,0,1,6.67-.22" transform="translate(-285.64 -88.51)"/></g></g></svg>